<svg xmlns="http://www.w3.org/2000/svg" width="583.972" height="171.301" id="cartoon-network"><path d="M0 0v171.3h583.972V0Z" data-name="Path 3143"></path><path fill="#fff" d="M500.964 87.092h80.147v81.347h-80.147V87.092Zm-2.912-84.231v81.348h-80.1V2.861Zm-166.018 0v81.348h-80.1V2.861Zm-166.017 0v81.348H85.92V2.861ZM2.86 168.439V87.092h80.148v81.347Zm166.069 0V87.092h80.1v81.347Zm166.017 0V87.092h80.1v81.347h-80.1Z" data-name="Path 3144"></path><path d="M459.483 74.683c16.337 0 29.582-12.9 29.582-28.824s-13.245-28.824-29.582-28.824S429.9 29.94 429.9 45.859s13.246 28.824 29.583 28.824Zm-83.672 79.381c16.338 0 29.583-12.906 29.583-28.824s-13.245-28.824-29.583-28.824-29.583 12.9-29.583 28.824 13.245 28.824 29.583 28.824ZM140.482 74.286h20.784L126.4 15.823 91.539 74.286h20.784l3.518-5.9h21.123ZM320.565 14.75H265.32v16.627h16.091v43.446h23.064V31.377h16.09ZM237.43 95.205h-55.246v16.627h16.091v43.445h23.064v-43.445h16.091Zm-162.876 0v58.463L38.618 132.75v21.45h-21.1V95.74l35.936 20.918V95.205Zm501.5 59-21.814-30.394 17.521-28.606H547.8l-11.8 15.43v-15.43h-23.238v59H536v-15.531l13.592 15.526Z" data-name="Path 3145"></path><path fill="#fff" d="M374.2 74.683c16.338 0 29.583-12.9 29.583-28.824S390.539 17.035 374.2 17.035s-29.581 12.905-29.581 28.824 13.244 28.824 29.581 28.824ZM56.4 51.829a12.9 12.9 0 1 1 0-11.939l15.294-6.4a29.649 29.649 0 0 0-26.729-16.455c-16.338 0-29.583 12.9-29.583 28.824s13.245 28.824 29.583 28.824A29.649 29.649 0 0 0 71.689 58.23L56.4 51.829Zm513.037-36.766v58.463L533.5 52.608v21.454h-21.1V15.6l35.94 20.917V15.063Zm-464.31 81.214v56.854h41.836V139.9h-22.438v-5.363h22.438v-16.449h-22.438v-6.436h22.438V96.277Zm204.711 0-8.224 21.912-8.4-14.939-8.4 14.939-8.224-21.912h-18.242l20.56 55.244 14.3-15.017 14.3 15.017 20.56-55.244h-18.23ZM211.98 59.8h-11.56v13.95h-18.236V15.555h28.606c2.936 0 5.234-.15 6.257 0 21.276 3.128 19.488 27.265 8.978 34.8l14.622 23.4h-21.454Zm249.944 80.1h-11.56v13.945h-18.236V95.65h28.606c2.935 0 5.234-.15 6.258 0 21.275 3.129 19.487 27.266 8.978 34.8l14.622 23.4h-21.454l-7.214-13.95Zm-15.336-94.041a12.9 12.9 0 1 1 12.9 12.9 12.895 12.895 0 0 1-12.9-12.9Zm-83.673 79.381a12.9 12.9 0 1 1 12.9 12.9 12.9 12.9 0 0 1-12.9-12.9Zm-238.757-70.8 2.244-3.765 2.245 3.765h-4.489Z" data-name="Path 3146"></path><path d="M361.307 45.859a12.9 12.9 0 1 1 12.895 12.9 12.894 12.894 0 0 1-12.895-12.9ZM200.6 28.963v15.465h6.794c2.145 0 8.224-1.251 8.224-8.045s-6.436-7.42-8.224-7.42H200.6Zm249.945 80.1v15.465h6.793c2.146 0 8.225-1.252 8.225-8.045s-6.436-7.42-8.225-7.42h-6.793Z" data-name="Path 3147"></path></svg>